<?xml version="1.0" standalone="no"?>
<!DOCTYPE svg PUBLIC "-//W3C//DTD SVG 20010904//EN"
 "http://www.w3.org/TR/2001/REC-SVG-20010904/DTD/svg10.dtd">
<svg version="1.0" xmlns="http://www.w3.org/2000/svg"
 width="256.000000pt" height="256.000000pt" viewBox="0 0 256.000000 256.000000"
 preserveAspectRatio="xMidYMid meet">
<metadata>
Created by potrace 1.14, written by Peter Selinger 2001-2017
</metadata>
<g transform="translate(0.000000,256.000000) scale(0.100000,-0.100000)"
fill="#000000" stroke="none">
<path d="M1207 2484 c-1 -1 -29 -4 -62 -8 -114 -10 -300 -60 -330 -87 -5 -5
-17 -9 -27 -9 -10 0 -18 -4 -18 -10 0 -5 -7 -10 -15 -10 -15 0 -48 -19 -155
-89 -102 -66 -275 -250 -337 -356 -14 -24 -81 -161 -93 -190 -13 -30 -40 -118
-45 -146 -3 -13 -8 -37 -11 -54 -12 -51 -15 -86 -18 -205 -6 -191 36 -385 120
-553 70 -139 201 -301 327 -401 l47 -38 0 178 c0 99 2 250 3 338 l2 159 150
52 c83 29 176 62 208 73 31 11 57 18 57 15 0 -3 6 -1 13 4 14 12 179 68 190
65 4 -1 7 3 7 10 0 6 3 8 6 5 4 -3 15 -2 26 4 15 8 42 3 116 -22 53 -18 100
-32 105 -31 4 1 7 -3 7 -10 0 -6 3 -9 6 -6 3 3 62 -14 132 -38 70 -25 161 -56
202 -70 41 -14 82 -28 90 -31 8 -3 24 -8 34 -10 11 -2 22 -5 24 -8 2 -2 4
-153 4 -334 0 -182 3 -331 6 -331 28 1 212 185 268 267 21 32 41 60 45 63 6 5
81 160 100 205 16 39 47 151 54 195 3 25 9 59 12 75 9 43 8 261 -1 320 -29
195 -125 420 -241 565 -87 108 -261 257 -345 296 -19 9 -42 22 -50 29 -21 17
-209 89 -230 88 -3 0 -25 5 -50 13 -25 7 -70 16 -100 19 -54 7 -228 14 -233 9z
m97 -264 c-1 -41 7 -47 54 -41 6 1 12 -5 12 -14 0 -8 0 -18 0 -22 1 -5 -14
-10 -32 -13 l-33 -5 0 -84 c0 -83 0 -84 -27 -87 l-26 -2 2 76 c1 42 0 83 -2
90 -2 6 -19 12 -37 12 -29 0 -32 2 -27 25 2 14 9 25 16 24 45 -5 52 0 51 44
-1 30 3 44 14 48 25 10 37 -7 35 -51z m12 -319 c5 -4 47 -28 94 -53 47 -25
110 -59 140 -75 l55 -30 3 -281 2 -282 -22 4 c-13 3 -23 5 -23 6 0 1 -7 3 -16
5 -9 1 -59 15 -110 30 -52 15 -102 29 -112 31 -10 2 -26 6 -36 9 -10 3 -36 -1
-59 -9 -23 -8 -42 -13 -42 -10 0 3 -6 2 -12 -3 -7 -4 -15 -8 -18 -9 -4 0 -91
-27 -135 -41 -5 -2 -25 -6 -42 -9 l-33 -6 0 280 0 280 43 25 c23 14 87 48 142
77 55 29 104 56 110 61 12 11 58 12 71 0z"/>
<path d="M1233 1652 c-26 -26 -33 -51 -31 -114 l2 -63 51 -5 c27 -3 62 -3 76
-2 25 4 26 6 27 77 0 65 -3 77 -24 100 -26 28 -76 32 -101 7z"/>
<path d="M781 814 c-26 -33 -33 -150 -10 -164 7 -5 103 -5 132 -1 4 0 7 33 7
71 0 62 -3 74 -25 95 -33 34 -77 33 -104 -1z"/>
<path d="M1685 816 c-22 -22 -24 -32 -22 -98 l2 -72 73 -1 72 -1 1 40 c1 23 1
44 0 48 0 4 -2 21 -3 38 -3 37 -38 70 -75 70 -13 0 -35 -11 -48 -24z"/>
<path d="M1275 614 c-5 -1 -22 -5 -37 -8 -38 -9 -94 -70 -105 -114 -10 -45
-10 -399 1 -409 10 -10 303 -10 312 0 4 3 6 95 5 204 -1 183 -3 201 -23 242
-12 24 -29 46 -38 49 -8 3 -17 9 -20 13 -6 9 -80 27 -95 23z"/>
</g>
</svg>
